<?xml version="1.0" standalone="no"?>
<!DOCTYPE svg PUBLIC "-//W3C//DTD SVG 20010904//EN"
 "http://www.w3.org/TR/2001/REC-SVG-20010904/DTD/svg10.dtd">
<svg version="1.0" xmlns="http://www.w3.org/2000/svg"
 width="1132.000000pt" height="1132.000000pt" viewBox="0 0 1132.000000 1132.000000"
 preserveAspectRatio="xMidYMid meet">
<metadata>
Created by potrace 1.14, written by Peter Selinger 2001-2017
</metadata>
<g transform="translate(0.000000,1132.000000) scale(0.100000,-0.100000)"
fill="#000000" stroke="none">
<path d="M830 8870 l0 -1600 1605 0 1605 0 0 1600 0 1600 -1605 0 -1605 0 0
-1600z m2750 0 l0 -1150 -1145 0 -1145 0 0 1150 0 1150 1145 0 1145 0 0 -1150z"/>
<path d="M1740 8870 l0 -690 690 0 690 0 0 690 0 690 -690 0 -690 0 0 -690z"/>
<path d="M4490 10015 l0 -455 460 0 460 0 0 -1145 0 -1145 230 0 230 0 0 685
0 685 460 0 460 0 0 460 0 460 -230 0 -230 0 0 -230 0 -230 -230 0 -230 0 0
685 0 685 -230 0 -230 0 0 -225 0 -225 -230 0 -230 0 0 225 0 225 -230 0 -230
0 0 -455z"/>
<path d="M6330 10245 l0 -225 230 0 230 0 0 225 0 225 -230 0 -230 0 0 -225z"/>
<path d="M7240 8870 l0 -1600 1605 0 1605 0 0 1600 0 1600 -1605 0 -1605 0 0
-1600z m2750 0 l0 -1150 -1145 0 -1145 0 0 1150 0 1150 1145 0 1145 0 0 -1150z"/>
<path d="M8160 8870 l0 -690 690 0 690 0 0 690 0 690 -690 0 -690 0 0 -690z"/>
<path d="M4490 7495 l0 -685 230 0 230 0 0 685 0 685 -230 0 -230 0 0 -685z"/>
<path d="M6330 7265 l0 -455 -460 0 -460 0 0 -460 0 -460 -230 0 -230 0 0 230
0 230 -455 0 -455 0 0 230 0 230 -230 0 -230 0 0 -230 0 -230 230 0 230 0 0
-230 0 -230 -690 0 -690 0 0 230 0 230 230 0 230 0 0 230 0 230 -460 0 -460 0
0 -230 0 -230 -685 0 -685 0 0 -915 0 -915 230 0 230 0 0 225 0 225 225 0 225
0 0 230 0 230 -225 0 -225 0 0 230 0 230 455 0 455 0 0 -460 0 -460 230 0 230
0 0 -225 0 -225 1145 0 1145 0 0 -690 0 -690 -230 0 -230 0 0 -455 0 -455 230
0 230 0 0 -460 0 -460 460 0 460 0 0 230 0 230 230 0 230 0 0 230 0 230 455 0
455 0 0 -460 0 -460 -225 0 -225 0 0 -230 0 -230 225 0 225 0 0 230 0 230 230
0 230 0 0 -230 0 -230 460 0 460 0 0 230 0 230 -460 0 -460 0 0 230 0 230 230
0 230 0 0 455 0 455 690 0 690 0 0 -225 0 -225 -230 0 -230 0 0 -690 0 -690
230 0 230 0 0 460 0 460 225 0 225 0 0 -230 0 -230 230 0 230 0 0 230 0 230
-230 0 -230 0 0 455 0 455 230 0 230 0 0 460 0 460 -455 0 -455 0 0 230 0 230
-230 0 -230 0 0 -230 0 -230 230 0 230 0 0 -230 0 -230 -690 0 -690 0 0 -230
0 -230 -460 0 -460 0 0 230 0 230 -225 0 -225 0 0 230 0 230 455 0 455 0 0
230 0 230 230 0 230 0 0 230 0 230 460 0 460 0 0 225 0 225 -460 0 -460 0 0
230 0 230 915 0 915 0 0 -230 0 -230 230 0 230 0 0 460 0 460 -455 0 -455 0 0
230 0 230 455 0 455 0 0 230 0 230 -455 0 -455 0 0 -230 0 -230 -460 0 -460 0
0 -230 0 -230 -230 0 -230 0 0 460 0 460 -685 0 -685 0 0 455 0 455 -230 0
-230 0 0 -455z m460 -685 l0 -230 225 0 225 0 0 -230 0 -230 -225 0 -225 0 0
-685 0 -685 -230 0 -230 0 0 -460 0 -460 -230 0 -230 0 0 -230 0 -230 460 0
460 0 0 -230 0 -230 -920 0 -920 0 0 230 0 230 230 0 230 0 0 915 0 915 -460
0 -460 0 0 460 0 460 230 0 230 0 0 -230 0 -230 230 0 230 0 0 230 0 230 230
0 230 0 0 230 0 230 230 0 230 0 0 230 0 230 230 0 230 0 0 -230z m1370 -920
l0 -230 -230 0 -230 0 0 -230 0 -230 -230 0 -230 0 0 230 0 230 230 0 230 0 0
230 0 230 230 0 230 0 0 -230z m-4120 -460 l0 -230 -460 0 -460 0 0 230 0 230
460 0 460 0 0 -230z m3660 -910 l0 -230 -230 0 -230 0 0 230 0 230 230 0 230
0 0 -230z"/>
<path d="M6330 6120 l0 -230 230 0 230 0 0 230 0 230 -230 0 -230 0 0 -230z"/>
<path d="M5410 5200 l0 -230 230 0 230 0 0 230 0 230 -230 0 -230 0 0 -230z"/>
<path d="M9990 4290 l0 -230 230 0 230 0 0 230 0 230 -230 0 -230 0 0 -230z"/>
<path d="M830 2455 l0 -1605 1605 0 1605 0 0 1605 0 1605 -1605 0 -1605 0 0
-1605z m2750 0 l0 -1145 -1145 0 -1145 0 0 1145 0 1145 1145 0 1145 0 0 -1145z"/>
<path d="M1740 2455 l0 -685 690 0 690 0 0 685 0 685 -690 0 -690 0 0 -685z"/>
</g>
</svg>
