<svg xmlns="http://www.w3.org/2000/svg" xml:space="preserve" width="512" height="512" viewBox="0 0 135.5 135.5"><path d="M0 0h135.5v135.5H0Z"/><path fill="#fff" d="M62.6 28.1s-2.9 15.6-13.3 29.5S13 87.9 13 87.9s8 4.5 17.5 11.3a39 39 0 0 0 21.5 8.2l.3-.3c3.6-3 7.6-7.1 9.5-10.6 3.8-7.3 4.8-18.6 4.8-18.6l.2-2 2 .5s9.3 2 21.6-2.8A73 73 0 0 0 109.7 60l6.7-6.7c5-13 6-23.9 6-23.9S98.7 35 87.2 34.3C75.8 33.6 62.6 28 62.6 28m50 33.9-.6.5a74 74 0 0 1-20.3 14.3A47 47 0 0 1 70 80a52 52 0 0 1-5 18 38 38 0 0 1-7.4 9.2c6.6-.8 12.3-3.5 17.2-5.8A101 101 0 0 0 112.6 62"/></svg>