<svg xmlns="http://www.w3.org/2000/svg" width="1024" height="1024" viewBox="0 0 270.9 270.9"><path d="M0 0h270.9v270.9H0z"/><path fill="#b0b5b7" d="M184.7 163.7q-1 0-2 2c-1 2-1.1 5.9-.2 7.3q.6.9.2 1.6l-.8 4.4c-1 8.3-.5 8.7 1 8.8 1.7.1 1.1 1 6 1.9 4.2.7 6.5 1 6.9-1.7.3-2.2-7.3-4.6-11-3.7-1 .2-1.3-.1-.8-3l.6-5.3c.2-1.6.6-3.5.8-4 .7-1.4 1.2-4.2 1-5.2l-.3-1.5q-.3-1.5-1.4-1.6m-5.1-2.4c-1 0-3 1.9-3.9 4.9-1.1 4.3.5 6.3 2.7 6.7 2.3.3 2.5-1.5 2.4-3 0-1 .2-3.5 1.7-5.5.8-1.2.7-2.6-2.8-3.1M76 146.2q-.8 0-1.4.5c-.9 1-.7 2.9.5 3.1 1.8.4 2 .2 2.2-.9l.4-1.6c.3-.6-.7-1-1.6-1"/><path fill="#b0b5b7" d="M72.3 143c-4 0-5 9.1-.7 10 1.9.3 3.3-.2 2.4-1-1.8-1.7-1.3-6.5.8-7.5 1.6-.6-.2-1.2-2-1.5z"/><path fill="#e2d3c7" d="M205.3 46c-13 0-27.6 19.6-32 50.4-4 26.9 3.3 50.8 16.6 55 23.4 7.4 45.9-53.3 32.9-88.7C218.5 51.1 212 46 205.3 46M202 77.1c4 0 7.3 4.5 8.3 13 1.4 11.2-3.3 25.6-9.8 29.6-10.4 6.4-16.1-15.2-8.6-32.6 3-6.9 6.7-10.1 10.1-10"/><path fill="#f9ebe0" d="M124.7 35q-1.7 0-2.7.4c-19.8 5-34.4 43.2-28.5 74.2l.2.7 3 .4.5.1-.1.9h-.5l-2.8-.5a61 61 0 0 1-2.6 31.4c-1.8 5.8-3.2 4.7 10 7.2l29 5.5 25 4.8 3.3.7c1.6 1.6 8.1-12 10.8-22.7 1.7-7 1.9-8.9 2-23.8 0-14.4 0-15 1.6-23.4 4.2-22.5 15-40.8 26.8-45 3-1.1 4-.9-14.3-3.3l-39.6-5.3c-12.7-1.8-18-2.5-21.1-2.3m-23.9 76.3.5.1 4.5.7h.4l-.1 1h-.5l-4.5-.8h-.4zm9 1.4h.5l4.5.8h.4l-.1 1-.5-.1-4.5-.7h-.4zm9 1.4h.5l4.5.8h.4l-.1 1-.5-.1-4.5-.7-.4-.1zm9 1.4h.5l4.5.7.4.1v.9h-.5l-4.5-.8h-.5zm9 1.4h.5l4.5.7h.5l-.2 1h-.4l-4.5-.8h-.5zm9 1.3.5.1 4.5.7h.5l-.2 1-.4-.1-4.5-.7h-.5zm9 1.4h.5l4.5.8h.5l-.2 1-.4-.1-4.5-.7h-.5zm9 1.4h.5l4.5.7.5.1-.2 1-.4-.2-4.5-.6-.5-.1zM88 152.7c-4 9-8.6 16.6-12 22.5l67.1 14.6a83 83 0 0 0 13.6-23.9z"/><path fill="#84828f" d="M90.2 138.2c-.6-.6-.8-.7-1.4-.7-2.2 0-7.4 3.8-9.3 7-1.3 2.4-.6 11-.6 13.9l-3 5.2s-.8 1.2-1.9 1.9c-5.5 3.3-6.2 4.1-9.6 12.5a155 155 0 0 1-10.5 19.7c-5.6 9.4-6.1 10.7-5.3 14.2.8 4.1-.1 3.7 26 9.8l49.6 11.5c7.4 1.7 10.5.4 14.8-6 3.8-5.7 9.5-18.9 13.4-30.6 3.2-9.6 3.6-10.3 10.5-15.6 3.3-2.5 3.7-2.9 4.6-4.7 1-1.9 1-3.3 1-6.4.2-7.6.7-8.7 5-11.9 4.4-3.3 5-4.7 3-6.2a43 43 0 0 0-9.1-2l-1 1.6c-1 1.9-1 1.7 1.7 2.2 2.9.5 3 1 .5 2.9a11 11 0 0 0-4.1 5.1c-.4 1.3-.3 1.3-5.6.3l-60.4-11.5c-17.6-3.3-18.5-4-10.9-8.4 2.2-1.3 2.8-1.2 3-2.3.1-.4.4-.6-.4-1.5m-7 12.8h.3l8.6 1.7a5979 5979 0 0 1 69.4 13.2c1.9.1 1.9.8 1.9 3.2-.1 4.8-1.8 6.3-5.4 8.8-6 4.3-8.5 7.9-9.6 10.7-1.2 3-.6 3-13.5.4l-58-11.9c-2.4-.4-4.5-1-4.8-1.2-1.1-1.1 1.3-5.7 4.2-7.5a7 7 0 0 0 2.8-3q1.9-3 3.6-6.3c.3-.9 0-1.8 0-4 0-3.4 0-4.1.4-4.1m-12.6 33.3c1.6 0 4.2.6 8.8 1.6l20.3 4.3 33.3 7c12.5 2.6 11.4 1.8 9.5 6.5-5.6 13.7-9.4 20.5-12 21.6q-1.5.6-3.4.2l-23.9-5.4-43-9.9c-5.5-1.2-5.7-1.9-1.7-8.3 3.1-5 6.7-11.2 8.5-14.8 1-2 1.5-2.8 3.6-2.8m4 5.1q-.8 0-1.4.2c-4.4.8-4 4.2.6 5.2 3.5.7 6.5-.4 6.5-2.4 0-1.7-2.8-3-5.8-3m15.4 3.4c-2.2 0-4.2.8-4.3 2.2-.1 1.6.6 2.2 3.3 3 4 1.1 8.3-1 6.7-3.2-1-1.4-3.5-2-5.7-2m15.4 3.3c-4.8 0-6 3.6-1.7 5 2 .6 5.9.4 7-.4 2.8-2-.2-4.6-5.3-4.6m-28 2c-4.7 0-6.6 3.3-2.2 4.9 3 1 7.8.3 8.1-1.2q.6-3-5-3.7zm44.4 1.2h-1.4c-4.3.5-5 3.6-1 5 3.4 1.2 7.8.1 7.8-2 0-1.7-2.3-3-5.4-3m-29 2.3q-2 0-3.1.7c-1.9 1.2-.7 3.5 2 4.3 5.1 1.5 10.2-1.4 6.9-3.7-1.3-1-3.7-1.4-5.8-1.3m16.5 3.3q-2.4 0-3.6.7c-2.2 1.7-.8 3.9 3 4.6 5.3 1.1 9-2.4 4.8-4.5q-1.8-.8-4.2-.8m-40 .3c-2.2.6-4.1 3.7-2.9 4.7.4.3 9.6 2.5 36 8.4l12 2.7c3.7 1 4 1 4.5.3l1.8-1.9c2.3-2.3 1.8-2.9-4-4.1l-40-8.8c-3.7-.8-7-1.4-7.4-1.3m56 3q-2.2 0-3.6.6c-2.3 1.4-1.2 3.6 2.2 4.5 5.4 1.6 10-2.2 5.4-4.4q-1.6-.7-4-.8"/></svg>