<svg xmlns="http://www.w3.org/2000/svg" viewBox="0 0 192 192"><path d="M0 0h192v192H0z"/><rect width="71.1" height="34.6" x="47.6" y="74.7" fill="#e9afaf" ry="0" transform="scale(.96405 1)skewY(14.9)"/><rect width="37.6" height="34.6" x="141.8" y="188.2" fill="#e9afaf" ry="0" transform="scale(.816451 1)skewY(-30)"/><path fill="#e9afaf" d="M75.6 64.7 46 86.1l69.3 19 30.4-22-29.1-7.9-4.4 10.6 5.3 1-7.9 5.2-35-9.7 6-4.1z"/><path fill="#fff" d="M84.2 82.8s8.2.4 12 1.3c6.3 1.7 12 5.6 12 5.6l14.1-33.5s-9 3.2-14.5 2.3-10-7.6-15.3-9c-8-2-20.9-2-19.3 2.3z"/></svg>