<?xml version="1.0" encoding="UTF-8" standalone="no"?>
<!-- Created with Inkscape (http://www.inkscape.org/) -->

<svg
   width="512"
   height="512"
   viewBox="0 0 135.46666 135.46667"
   version="1.1"
   id="svg1"
   xmlns="http://www.w3.org/2000/svg"
   xmlns:svg="http://www.w3.org/2000/svg">
  <defs
     id="defs1" />
  <g
     id="layer1">
    <path
       id="rect1"
       style="baseline-shift:baseline;display:inline;overflow:visible;opacity:1;vector-effect:none;stroke-width:0.9342;enable-background:accumulate;stop-color:#000000;stop-opacity:1"
       d="m 56.40324,24.876314 c -7.301351,-0.191017 -14.675226,2.38989 -20.364797,7.789352 -9.600198,9.110685 -11.438586,23.429831 -5.293959,34.517424 1.496782,-0.670884 3.028365,-1.279059 4.59299,-1.819527 0.01575,-0.0055 0.03152,-0.01102 0.04731,-0.01641 2.242668,-0.753068 4.585193,-1.43304 7.017899,-1.942149 -5.164315,-6.725365 -4.510377,-16.142988 1.802145,-22.133638 6.760337,-6.415629 17.105462,-6.143851 23.52109,0.616486 l 24.797514,26.129931 c 3.964692,4.177714 5.376539,9.724231 4.281124,14.86663 4.214634,-2.499551 7.872484,-6.113826 10.759784,-10.35764 v -0.002 c 0.12566,-0.184627 0.25015,-0.369993 0.37317,-0.556141 -1.19104,-4.408449 -3.45649,-8.587793 -6.80741,-12.118753 L 76.332587,33.720016 C 70.933127,28.030444 63.704592,25.067331 56.40324,24.876314 Z" />
    <path
       id="path1"
       style="baseline-shift:baseline;display:inline;overflow:visible;opacity:1;vector-effect:none;stroke-width:0.9342;enable-background:accumulate;stop-color:#000000;stop-opacity:1"
       d="m 120.25837,62.493312 a 2.4252267,2.4252267 0 0 0 -2.97228,1.550917 c -0.0191,0.05615 -0.0376,0.112075 -0.0566,0.167864 -3.07521,8.311043 -8.25733,15.943606 -15.33037,21.10343 -6.9e-4,5.06e-4 -9.3e-4,0.0013 -0.002,0.0019 -5.682717,4.093907 -12.695454,6.422308 -19.671109,6.377009 -2.279456,-0.02994 -4.497271,-0.811193 -5.838749,-2.295358 a 2.4252267,2.4252267 0 0 0 -0.02919,-0.03285 C 74.4801,87.360973 73.241515,84.484792 71.668927,81.441946 l 0.02007,0.04196 C 69.731516,77.508952 67.148047,73.316313 62.909078,70.60005 59.094951,68.134449 54.622384,67.257704 50.415979,67.302981 a 2.4252267,2.4252267 0 0 0 -0.01642,0 c -4.134255,0.07155 -8.127196,0.947125 -11.898276,2.100125 a 2.4252267,2.4252267 0 0 0 -0.01277,0.0036 c -8.933548,2.790773 -16.838297,7.960822 -23.29661,14.573154 -9.28e-4,9.34e-4 -8.98e-4,0.0027 -0.0019,0.0036 -0.0015,0.0016 -0.0039,0.0021 -0.0055,0.0036 -4.201,4.268085 -7.8087569,9.077897 -10.7305262,14.325008 a 2.4252267,2.4252267 0 0 0 1.0819933,3.371882 c 2.9581844,1.39986 5.9132269,2.87207 8.9095659,4.31702 a 2.4252267,2.4252267 0 0 0 3.152925,-0.97252 c 4.094772,-7.099466 9.836946,-13.297033 16.74452,-17.614756 l 0.0073,-0.0036 c 5.299708,-3.231782 11.345963,-5.309133 17.432316,-5.464705 1.529748,0.0017 3.034252,0.639467 3.879119,1.698712 a 2.4252267,2.4252267 0 0 0 0.05474,0.06568 c 1.624948,1.894967 2.768469,4.483413 4.202075,7.221804 2.086901,4.183434 4.781654,8.587186 9.165012,11.515105 4.057108,2.77155 8.898938,3.85031 13.456493,3.92473 5.326249,0.10454 10.530628,-0.94019 15.414301,-2.57269 a 2.4252267,2.4252267 0 0 0 0.02009,-0.006 c 7.325243,-2.51634 13.944053,-6.881452 19.244163,-12.400045 l 0.004,-0.0036 c 5.51149,-5.674197 9.80566,-12.435275 12.83247,-19.632795 0.49707,-1.145447 0.90577,-2.263247 1.30642,-3.318963 a 2.4252267,2.4252267 0 0 0 -1.59288,-3.191242 z" />
  </g>
</svg>
