<?xml version="1.0" standalone="no"?>
<!DOCTYPE svg PUBLIC "-//W3C//DTD SVG 20010904//EN"
 "http://www.w3.org/TR/2001/REC-SVG-20010904/DTD/svg10.dtd">
<svg version="1.0" xmlns="http://www.w3.org/2000/svg"
 width="1024.000000pt" height="1024.000000pt" viewBox="0 0 1024.000000 1024.000000"
 preserveAspectRatio="xMidYMid meet">
<metadata>
Created by potrace 1.14, written by Peter Selinger 2001-2017
</metadata>
<g transform="translate(0.000000,1024.000000) scale(0.100000,-0.100000)"
fill="#000000" stroke="none">
<path d="M4975 8113 c-65 -14 -192 -63 -298 -113 -67 -32 -228 -105 -357 -163
-129 -58 -302 -136 -385 -175 -280 -129 -570 -264 -740 -345 -93 -44 -236
-110 -316 -147 -80 -37 -165 -80 -188 -94 -105 -66 -180 -166 -228 -303 l-28
-78 0 -1485 0 -1485 23 -72 c28 -91 108 -211 170 -256 51 -37 193 -111 410
-211 75 -35 304 -142 507 -238 204 -96 404 -191 445 -210 41 -20 127 -61 190
-91 696 -333 691 -330 849 -348 185 -21 288 3 561 131 257 121 695 328 1055
500 187 89 414 196 505 237 401 183 491 244 564 382 75 143 70 35 71 1661 l0
1455 -23 78 c-34 119 -67 174 -156 263 -58 58 -99 90 -146 111 -36 17 -184 87
-330 156 -298 140 -945 440 -1300 602 -493 225 -556 246 -737 244 -54 -1 -107
-3 -118 -6z m326 -379 c52 -15 246 -101 644 -284 105 -48 258 -118 340 -155
83 -37 253 -114 378 -171 125 -57 230 -104 232 -104 2 0 51 -23 109 -51 160
-78 225 -154 226 -264 0 -77 -17 -120 -68 -175 -50 -53 -116 -86 -917 -452
-132 -60 -319 -147 -415 -193 -297 -142 -541 -246 -614 -262 -86 -18 -202 -11
-285 17 -54 18 -273 118 -981 450 -179 84 -424 197 -545 252 -121 55 -243 113
-272 130 -134 75 -185 216 -123 338 44 86 77 105 590 335 113 51 309 141 435
200 127 59 277 129 335 155 316 143 489 219 523 229 99 33 306 35 408 5z
m-1971 -2006 c50 -16 430 -195 1027 -485 71 -34 104 -58 147 -103 66 -72 112
-163 126 -250 13 -85 13 -1401 0 -1493 -19 -130 -91 -222 -199 -254 -101 -29
-133 -19 -461 140 -850 413 -846 410 -905 479 -46 54 -91 145 -105 211 -7 36
-10 291 -8 807 l3 755 32 61 c33 63 77 108 122 126 72 28 144 29 221 6z m3791
-23 c24 -17 58 -50 76 -73 64 -84 63 -69 63 -878 0 -501 -4 -750 -11 -786 -17
-81 -55 -153 -117 -220 -55 -60 -67 -66 -422 -241 -761 -374 -751 -370 -842
-371 -136 -1 -239 88 -272 234 -23 99 -23 1428 -1 1534 20 93 47 147 113 217
51 56 73 69 341 203 353 177 819 402 846 409 11 3 57 5 102 4 73 -2 86 -5 124
-32z"/>
<path d="M5025 7556 c-135 -33 -215 -118 -215 -226 0 -115 89 -201 239 -231
50 -9 77 -9 129 0 151 28 242 115 242 231 0 112 -87 199 -228 229 -65 14 -102
13 -167 -3z"/>
<path d="M3760 6956 c-135 -39 -210 -120 -210 -226 0 -115 89 -201 239 -231
105 -20 233 13 304 80 114 105 81 283 -67 358 -41 21 -68 27 -136 29 -49 2
-104 -2 -130 -10z"/>
<path d="M6298 6924 c-104 -25 -180 -89 -204 -171 -14 -48 -14 -58 0 -106 26
-89 111 -154 234 -178 155 -29 322 54 358 178 14 48 14 58 0 106 -24 84 -100
146 -208 172 -76 18 -105 18 -180 -1z"/>
<path d="M5025 6386 c-135 -33 -215 -118 -215 -226 0 -115 89 -201 239 -231
50 -9 77 -9 129 0 151 28 242 115 242 231 0 112 -87 199 -228 229 -65 14 -102
13 -167 -3z"/>
<path d="M3750 4721 c-116 -37 -199 -147 -200 -263 -1 -198 102 -342 245 -342
67 0 125 32 176 97 81 102 94 160 60 278 -22 76 -40 115 -77 158 -48 57 -145
91 -204 72z"/>
<path d="M6749 5470 c-103 -54 -165 -209 -140 -348 28 -151 115 -242 231 -242
116 0 203 91 231 242 26 140 -37 295 -142 348 -50 26 -132 26 -180 0z"/>
<path d="M5999 4060 c-103 -54 -165 -209 -140 -348 28 -151 115 -242 231 -242
116 0 203 91 231 242 26 140 -37 295 -142 348 -50 26 -132 26 -180 0z"/>
</g>
</svg>
