<?xml version="1.0" standalone="no"?>
<!DOCTYPE svg PUBLIC "-//W3C//DTD SVG 20010904//EN"
 "http://www.w3.org/TR/2001/REC-SVG-20010904/DTD/svg10.dtd">
<svg version="1.0" xmlns="http://www.w3.org/2000/svg"
 width="949.000000pt" height="949.000000pt" viewBox="0 0 949.000000 949.000000"
 preserveAspectRatio="xMidYMid meet">
<metadata>
Created by potrace 1.14, written by Peter Selinger 2001-2017
</metadata>
<g transform="translate(0.000000,949.000000) scale(0.100000,-0.100000)"
fill="#000000" stroke="none">
<path d="M2619 9486 c-2 -2 -33 -6 -69 -9 -124 -11 -278 -38 -411 -72 -169
-43 -151 -38 -245 -70 -93 -32 -263 -101 -305 -125 -9 -4 -55 -29 -102 -53
-47 -25 -105 -58 -129 -73 -85 -53 -153 -99 -166 -111 -7 -7 -17 -13 -22 -13
-5 0 -15 -6 -22 -13 -7 -7 -38 -32 -68 -55 -124 -97 -299 -263 -390 -371 -25
-30 -50 -59 -55 -65 -6 -6 -44 -55 -84 -110 -123 -165 -243 -373 -318 -551
-14 -33 -31 -73 -38 -90 -7 -16 -20 -52 -30 -80 -9 -27 -19 -57 -22 -65 -3 -8
-7 -19 -9 -25 -1 -5 -12 -41 -23 -80 -24 -80 -23 -73 -54 -225 -14 -63 -28
-144 -32 -180 -4 -36 -11 -96 -15 -135 -9 -80 -8 -4349 2 -4380 3 -11 9 -51
13 -90 5 -55 54 -303 69 -350 1 -5 6 -23 11 -40 20 -81 90 -274 135 -376 59
-130 149 -302 161 -307 5 -2 9 -8 9 -14 0 -23 208 -316 233 -326 4 -2 7 -7 7
-12 0 -26 334 -360 360 -360 5 0 10 -4 10 -9 0 -5 24 -26 53 -47 28 -21 54
-41 57 -44 3 -3 34 -26 70 -51 36 -24 67 -47 68 -51 2 -5 7 -8 11 -8 4 0 46
-23 92 -51 173 -105 439 -222 629 -278 41 -12 89 -26 105 -31 17 -5 66 -16
110 -25 44 -9 87 -18 95 -20 8 -1 51 -8 95 -15 44 -7 96 -15 115 -18 60 -9
4310 -11 4400 -2 99 10 251 32 305 44 88 20 159 37 210 51 33 9 65 18 70 19 6
2 17 5 25 8 8 3 44 16 80 29 214 74 430 181 620 307 56 37 206 148 226 167 6
5 36 30 65 55 58 48 241 233 299 301 68 79 190 244 190 256 0 7 6 16 13 20 29
17 189 315 249 463 19 47 39 94 43 105 5 11 9 22 9 25 1 3 16 50 33 105 34
106 78 283 88 350 3 22 10 65 15 95 6 30 13 91 17 135 11 108 10 4342 0 4425
-5 36 -12 88 -17 115 -5 28 -12 66 -14 85 -34 223 -141 541 -263 785 -59 116
-222 377 -253 405 -3 3 -19 23 -35 46 -64 88 -261 297 -365 388 -75 66 -225
178 -320 241 -121 79 -402 225 -480 250 -3 1 -16 6 -30 12 -40 17 -168 59
-260 87 -104 31 -279 67 -391 81 -30 3 -67 9 -84 12 -32 7 -4339 16 -4346 9z"/>
</g>
</svg>
